<svg width="78" height="78" viewBox="0 0 78 78" fill="none" xmlns="http://www.w3.org/2000/svg">
<g clip-path="url(#clip0_2_12848)">
<path d="M57.8825 14.5275C57.6225 14.5275 57.3625 14.4625 57.135 14.3325C50.895 11.115 45.5 9.75 39.0325 9.75C32.5975 9.75 26.4875 11.2775 20.93 14.3325C20.15 14.755 19.175 14.4625 18.72 13.6825C18.2975 12.9025 18.59 11.895 19.37 11.4725C25.415 8.19 32.045 6.5 39.0325 6.5C45.955 6.5 52 8.0275 58.63 11.44C59.4425 11.8625 59.735 12.8375 59.3125 13.6175C59.02 14.2025 58.4675 14.5275 57.8825 14.5275V14.5275ZM11.375 31.59C11.05 31.59 10.725 31.4925 10.4325 31.2975C9.68501 30.7775 9.52251 29.77 10.0425 29.0225C13.26 24.4725 17.355 20.8975 22.23 18.395C32.435 13.13 45.5 13.0975 55.7375 18.3625C60.6125 20.865 64.7075 24.4075 67.925 28.925C68.445 29.64 68.2825 30.68 67.535 31.2C66.7875 31.72 65.78 31.5575 65.26 30.81C62.335 26.715 58.63 23.4975 54.2425 21.255C44.915 16.4775 32.9875 16.4775 23.6925 21.2875C19.2725 23.5625 15.5675 26.8125 12.6425 30.9075C12.3825 31.3625 11.895 31.59 11.375 31.59V31.59ZM31.6875 70.8175C31.265 70.8175 30.8425 70.655 30.55 70.33C27.7225 67.5025 26.195 65.6825 24.0175 61.75C21.775 57.7525 20.605 52.8775 20.605 47.645C20.605 37.9925 28.86 30.1275 39 30.1275C49.14 30.1275 57.395 37.9925 57.395 47.645C57.395 48.555 56.68 49.27 55.77 49.27C54.86 49.27 54.145 48.555 54.145 47.645C54.145 39.78 47.3525 33.3775 39 33.3775C30.6475 33.3775 23.855 39.78 23.855 47.645C23.855 52.325 24.895 56.6475 26.8775 60.1575C28.9575 63.895 30.3875 65.4875 32.89 68.0225C33.5075 68.6725 33.5075 69.68 32.89 70.33C32.5325 70.655 32.11 70.8175 31.6875 70.8175ZM54.99 64.805C51.1225 64.805 47.71 63.83 44.915 61.9125C40.0725 58.63 37.18 53.3 37.18 47.645C37.18 46.735 37.895 46.02 38.805 46.02C39.715 46.02 40.43 46.735 40.43 47.645C40.43 52.2275 42.77 56.55 46.735 59.215C49.0425 60.775 51.74 61.5225 54.99 61.5225C55.77 61.5225 57.07 61.425 58.37 61.1975C59.2475 61.035 60.0925 61.62 60.255 62.53C60.4175 63.4075 59.8325 64.2525 58.9225 64.415C57.07 64.7725 55.445 64.805 54.99 64.805V64.805ZM48.4575 71.5C48.3275 71.5 48.165 71.4675 48.035 71.435C42.8675 70.005 39.4875 68.0875 35.945 64.61C31.395 60.0925 28.8925 54.08 28.8925 47.645C28.8925 42.38 33.3775 38.09 38.9025 38.09C44.4275 38.09 48.9125 42.38 48.9125 47.645C48.9125 51.1225 51.935 53.95 55.6725 53.95C59.41 53.95 62.4325 51.1225 62.4325 47.645C62.4325 35.3925 51.87 25.4475 38.87 25.4475C29.64 25.4475 21.19 30.5825 17.3875 38.545C16.12 41.1775 15.47 44.265 15.47 47.645C15.47 50.18 15.6975 54.1775 17.6475 59.3775C17.9725 60.2225 17.55 61.165 16.705 61.4575C15.86 61.7825 14.9175 61.3275 14.625 60.515C13.0325 56.2575 12.2525 52.0325 12.2525 47.645C12.2525 43.745 13 40.2025 14.4625 37.115C18.785 28.0475 28.3725 22.165 38.87 22.165C53.6575 22.165 65.6825 33.5725 65.6825 47.6125C65.6825 52.8775 61.1975 57.1675 55.6725 57.1675C50.1475 57.1675 45.6625 52.8775 45.6625 47.6125C45.6625 44.135 42.64 41.3075 38.9025 41.3075C35.165 41.3075 32.1425 44.135 32.1425 47.6125C32.1425 53.17 34.2875 58.37 38.22 62.27C41.3075 65.325 44.265 67.015 48.8475 68.2825C49.725 68.51 50.2125 69.42 49.985 70.265C49.8225 71.0125 49.14 71.5 48.4575 71.5V71.5Z" fill="white"/>
</g>
<defs>
<clipPath id="clip0_2_12848">
<rect width="78" height="78" fill="white"/>
</clipPath>
</defs>
</svg>
